<?xml version="1.0" encoding="utf-8"?>
<!-- Generator: Adobe Illustrator 27.9.0, SVG Export Plug-In . SVG Version: 6.00 Build 0)  -->
<svg version="1.1" id="Layer_2_00000132778509593731892690000000472934285390285195_"
	 xmlns="http://www.w3.org/2000/svg" xmlns:xlink="http://www.w3.org/1999/xlink" x="0px" y="0px" viewBox="0 0 380 111.7"
	 style="enable-background:new 0 0 380 111.7;" xml:space="preserve">
<style type="text/css">
	.st0{fill-rule:evenodd;clip-rule:evenodd;fill:#FFDC00;}
	.st1{fill-rule:evenodd;clip-rule:evenodd;fill:#FFFFFF;}
</style>
<path class="st0" d="M11.2,100.4h55.4V11.2H11.2V100.4L11.2,100.4L11.2,100.4z M0,0h77.9v111.7H0V0L0,0z"/>
<g>
	<path class="st1" d="M129.7,50.1h-4.8c-6.3-8.9-12.6-17.8-18.9-27.9h-0.1v27.9h-5.3V11.2h4.8c6.3,8.9,12.6,17.7,18.8,27.7h0.1V11.2
		h5.3v38.9H129.7L129.7,50.1z"/>
	<path class="st1" d="M144.9,11.2l-13.4,38.9h5.8l3.4-10.6h11.7l3.1,10.6h7.4l-12.4-38.9L144.9,11.2L144.9,11.2z M142.3,34.7
		c1.6-5.1,3.1-9.8,4.5-15.8h0.1c1.6,6,2.9,10.7,4.4,15.8H142.3z"/>
	<polygon class="st1" points="169.1,50.1 169.1,16.4 158.9,16.4 158.9,11.2 186,11.2 186,16.4 175.8,16.4 175.8,50.1 169.1,50.1 	
		"/>
	<polygon class="st1" points="188.1,11.2 194.8,11.2 194.8,50.1 188.1,50.1 188.1,11.2 	"/>
	<path class="st1" d="M215.3,50.8c10.2,0,16.5-9,16.5-20.7c0-10.9-7-19.5-16.5-19.5s-16.5,8.7-16.5,19.5
		C198.8,41.7,205.1,50.8,215.3,50.8L215.3,50.8z M215.3,45.2c-6.9,0-9.4-7.7-9.4-15.1s2.8-14,9.4-14s9.4,6.8,9.4,14
		S222.2,45.2,215.3,45.2L215.3,45.2z"/>
	<path class="st1" d="M264.9,50.1h-4.8c-6.3-8.9-12.6-17.8-18.9-27.9h-0.1v27.9h-5.3V11.2h4.8c6.3,8.9,12.6,17.7,18.8,27.7h0.1V11.2
		h5.3v38.9H264.9L264.9,50.1z"/>
	<path class="st1" d="M280.1,11.2l-13.4,38.9h5.8l3.4-10.6h11.7l3.1,10.6h7.4l-12.4-38.9L280.1,11.2L280.1,11.2z M277.6,34.7
		c1.6-5.1,3.1-9.8,4.5-15.8h0.1c1.5,6,2.9,10.7,4.4,15.8H277.6z"/>
	<polygon class="st1" points="300,11.2 306.6,11.2 306.6,44.9 319.8,44.9 319.8,50.1 300,50.1 300,11.2 	"/>
	<path class="st1" d="M125.6,82.6v16c-3.6,1.4-7.3,2.4-11,2.4c-11.4,0-18.7-8.9-18.7-20.3c0-10.6,7.2-19.9,18.9-19.9
		c3.6,0,7.2,1.3,9.4,3l-2.2,4.6c-1.8-1.1-4.6-2.1-7.1-2.1c-7.1,0-11.9,5.6-11.9,14.4s5.6,14.7,11.3,14.7c1.8,0,3.3-0.2,4.7-0.9V82.6
		H125.6L125.6,82.6z"/>
	<polygon class="st1" points="149.4,66.7 138.3,66.7 138.3,77.4 149.2,77.4 149.2,82.6 138.3,82.6 138.3,95.1 151.4,95.1 
		151.4,100.4 131.6,100.4 131.6,61.5 149.4,61.5 149.4,66.7 	"/>
	<path class="st1" d="M170,101c10.1,0,16.5-9.1,16.5-20.7c0-10.9-7-19.5-16.5-19.5s-16.5,8.7-16.5,19.5C153.5,92,159.8,101,170,101
		L170,101z M170,95.5c-6.9,0-9.4-7.7-9.4-15.1s2.8-14,9.4-14s9.4,6.8,9.4,14S176.9,95.5,170,95.5L170,95.5z"/>
	<path class="st1" d="M218.4,82.6v16c-3.6,1.4-7.3,2.4-11.1,2.4c-11.4,0-18.6-8.9-18.6-20.3c0-10.6,7.2-19.9,18.9-19.9
		c3.6,0,7.2,1.3,9.4,3l-2.2,4.6c-1.8-1.1-4.5-2.1-7.1-2.1c-7.1,0-11.9,5.6-11.9,14.4s5.6,14.7,11.3,14.7c1.8,0,3.3-0.2,4.7-0.9V82.6
		H218.4L218.4,82.6z"/>
	<path class="st1" d="M248.1,100.4l-7.8-16.1c4.3-2.3,6.7-6.9,6.7-11.6c0-7.6-4.6-11.2-12.1-11.2h-10.4v38.9h6.7V85.7h3l6.3,14.7
		L248.1,100.4L248.1,100.4z M231.2,66.7h2.9c3.9,0,6.2,2.3,6.2,6.3c0,5.2-3.2,7.5-6.3,7.7c-0.7,0.1-2.2,0.1-2.8,0.2L231.2,66.7
		L231.2,66.7L231.2,66.7z"/>
	<path class="st1" d="M261.6,61.5l-13.4,38.9h5.8l3.4-10.6h11.7l3,10.6h7.5l-12.4-38.9H261.6L261.6,61.5z M259.1,85
		c1.5-5.1,3.1-9.8,4.5-15.8h0.1c1.5,6,2.9,10.7,4.4,15.8H259.1z"/>
	<path class="st1" d="M291.1,80.7c-0.7,0.1-2.3,0.1-2.8,0.2V66.7h3c3.9,0,6.1,2.3,6.1,6.3C297.4,78.2,294.3,80.5,291.1,80.7
		L291.1,80.7L291.1,80.7z M292,61.5h-10.4v38.9h6.7V85.7h3c7.9,0,12.8-6.4,12.8-13C304.1,65.1,299.5,61.5,292,61.5L292,61.5
		L292,61.5z"/>
	<polygon class="st1" points="335,100.4 328.3,100.4 328.3,81.7 314.5,81.7 314.5,100.4 307.9,100.4 307.9,61.5 314.5,61.5 
		314.5,76.4 328.3,76.4 328.3,61.6 335,61.6 335,100.4 	"/>
	<polygon class="st1" points="341.3,61.5 348,61.5 348,100.4 341.3,100.4 341.3,61.5 	"/>
	<path class="st1" d="M377.9,68.6c-1.6-1-4.3-2.2-6.8-2.2c-6.8,0-11.7,5.6-11.7,14.4s5.4,14.7,11.9,14.7c2.6,0,4.9-0.8,6.7-1.9
		l1.8,4.8c-2,1.4-5.5,2.7-8.8,2.7c-11.4,0-18.7-8.9-18.7-20.3c0-10.6,7.2-19.9,18.8-19.9c3.5,0,6.7,1.5,9,3L377.9,68.6L377.9,68.6
		L377.9,68.6z"/>
</g>
</svg>
